# xmcd
#
# Track frame offsets: 
#        150
#        33315
#        58732
#        80662
#        113887
#        136537
#        178043
#        213668
#
# Disc length: 3131 seconds
#
# Revision: 0
# Processed by: cddbd v1.5.2PL0 Copyright (c) Steve Scherf et al.
# Submitted via: ExactAudioCopy v0.99pb5
#
DISCID=6c0c3908
DTITLE=William Clarke Blues Band - Rockin' The Boat
DYEAR=2011
DGENRE=Blues
TTITLE0=Deal The Cards
TTITLE1=Keep It To Yourself
TTITLE2=All About My Girl
TTITLE3=I Had My Fun
TTITLE4=Red House - Just A Little Bit Of Love
TTITLE5=Iodine In My Coffee
TTITLE6=After Hours
TTITLE7=Boogie Woogie Woman
EXTD=
EXTT0=
EXTT1=
EXTT2=
EXTT3=
EXTT4=
EXTT5=
EXTT6=
EXTT7=
PLAYORDER=
